<svg id="b-man" xmlns="http://www.w3.org/2000/svg" xmlns:xlink="http://www.w3.org/1999/xlink" width="400" height="491.13233287858117" viewBox="0, 0, 400,491.13233287858117"><g id="svgg"><path id="path0" d="M142.428 0.874 C 140.778 1.301,136.651 1.891,133.258 2.186 C 129.865 2.481,126.603 2.982,126.009 3.300 C 124.803 3.946,117.569 5.299,111.323 6.048 C 109.072 6.318,106.126 6.775,104.775 7.064 C 101.225 7.823,98.374 8.181,94.877 8.305 C 92.718 8.382,91.876 8.613,92.055 9.079 C 92.224 9.519,91.420 9.860,89.675 10.089 C 88.225 10.280,85.075 10.775,82.674 11.190 C 80.273 11.605,76.858 12.068,75.085 12.217 C 73.313 12.367,71.716 12.717,71.538 12.994 C 71.163 13.579,66.650 15.816,65.791 15.844 C 65.472 15.854,64.229 16.337,63.029 16.917 C 61.828 17.497,60.302 17.979,59.637 17.990 C 58.972 18.000,58.166 18.499,57.844 19.100 C 57.523 19.700,56.716 20.199,56.052 20.208 C 55.387 20.218,54.366 20.586,53.784 21.027 C 53.201 21.468,52.196 21.828,51.549 21.828 C 50.903 21.828,49.929 22.319,49.386 22.920 C 48.839 23.524,47.705 24.011,46.846 24.011 C 45.979 24.011,45.284 24.312,45.272 24.693 C 45.250 25.389,40.666 27.857,39.427 27.840 C 39.052 27.835,38.745 28.205,38.745 28.663 C 38.745 29.121,38.155 29.719,37.434 29.993 C 36.712 30.268,35.961 30.753,35.764 31.071 C 35.567 31.390,34.968 31.651,34.432 31.651 C 33.896 31.651,33.013 32.142,32.469 32.742 C 31.926 33.342,31.144 33.834,30.730 33.834 C 30.317 33.834,29.838 34.202,29.665 34.652 C 29.493 35.102,28.916 35.471,28.385 35.471 C 27.854 35.471,27.113 35.839,26.739 36.289 C 26.366 36.739,25.739 37.108,25.347 37.108 C 24.955 37.108,24.206 37.536,23.683 38.059 C 22.658 39.085,21.219 39.996,19.178 40.913 C 17.356 41.731,14.734 44.318,14.734 45.297 C 14.734 45.751,14.110 46.796,13.348 47.618 C 12.585 48.440,12.093 49.113,12.253 49.113 C 12.414 49.113,10.582 52.308,8.182 56.212 C 5.783 60.117,3.820 63.519,3.820 63.773 C 3.820 64.026,3.199 64.945,2.440 65.814 C 1.681 66.683,0.822 67.691,0.530 68.053 C -0.136 68.881,-0.190 101.319,0.474 101.729 C 0.735 101.890,1.101 102.978,1.288 104.146 C 1.474 105.314,1.967 106.552,2.383 106.897 C 2.798 107.242,3.294 108.498,3.484 109.689 C 3.828 111.837,4.606 113.948,6.604 118.145 C 7.175 119.345,7.642 120.657,7.641 121.060 C 7.641 121.463,8.131 122.417,8.731 123.180 C 9.332 123.943,9.823 125.148,9.823 125.858 C 9.823 126.568,10.068 127.149,10.368 127.149 C 10.668 127.149,10.914 127.397,10.914 127.701 C 10.914 128.005,11.743 130.031,12.756 132.203 C 13.768 134.375,14.977 137.012,15.442 138.063 C 15.907 139.113,17.166 141.877,18.239 144.204 C 19.313 146.532,20.191 148.742,20.191 149.116 C 20.192 149.489,20.990 150.722,21.965 151.855 C 22.940 152.988,24.598 155.163,25.648 156.688 C 26.698 158.213,28.103 160.076,28.768 160.828 C 29.434 161.580,30.122 162.647,30.298 163.200 C 30.473 163.752,31.402 165.036,32.361 166.053 C 34.403 168.217,38.745 174.285,38.745 174.975 C 38.745 175.237,39.604 176.240,40.655 177.204 C 41.705 178.168,42.565 179.087,42.565 179.246 C 42.565 179.406,43.486 180.481,44.611 181.637 C 48.245 185.366,50.750 188.162,50.750 188.488 C 50.750 188.952,58.443 196.450,59.918 197.423 C 60.624 197.889,61.045 198.587,60.879 199.018 C 60.718 199.439,60.811 199.644,61.087 199.474 C 61.363 199.303,62.259 199.785,63.078 200.544 C 63.897 201.303,65.914 203.087,67.559 204.509 C 69.205 205.931,71.872 208.383,73.487 209.959 C 75.102 211.535,76.646 212.824,76.920 212.824 C 77.193 212.824,77.572 213.315,77.763 213.915 C 77.953 214.516,78.327 215.007,78.594 215.007 C 78.860 215.007,80.459 216.355,82.147 218.003 C 85.402 221.181,87.646 222.486,90.314 222.755 L 91.951 222.920 92.518 228.922 C 92.830 232.224,93.382 235.616,93.746 236.461 C 94.109 237.306,94.407 238.601,94.407 239.340 C 94.407 240.078,94.898 242.079,95.498 243.787 C 96.098 245.495,96.589 247.333,96.589 247.872 C 96.589 248.410,97.080 249.272,97.681 249.786 C 98.281 250.300,98.772 251.044,98.772 251.439 C 98.772 252.086,99.460 253.193,102.046 256.710 C 102.497 257.323,104.031 258.934,105.457 260.291 C 107.108 261.863,108.049 263.222,108.049 264.036 C 108.049 264.870,108.442 265.416,109.182 265.610 C 111.210 266.140,111.998 270.853,110.759 275.038 C 109.088 280.684,109.711 287.040,111.936 287.040 C 112.743 287.040,112.960 287.445,112.960 288.950 C 112.960 290.527,113.160 290.859,114.108 290.859 C 115.249 290.859,115.253 290.919,114.857 301.779 L 114.458 312.699 115.756 312.557 C 117.047 312.415,117.054 312.445,117.209 318.679 C 117.331 323.596,117.542 325.044,118.192 325.407 C 118.869 325.786,118.998 327.010,118.896 332.117 C 118.780 337.990,119.553 341.440,120.442 339.014 C 120.950 337.628,121.692 339.015,121.692 341.350 C 121.692 343.196,121.945 343.890,122.783 344.338 C 123.383 344.660,123.874 345.236,123.874 345.619 C 123.874 346.003,124.407 347.406,125.057 348.738 C 125.803 350.265,126.193 351.988,126.112 353.401 C 126.018 355.053,126.353 356.185,127.385 357.706 C 128.156 358.842,128.786 360.056,128.786 360.406 C 128.786 360.768,129.778 361.100,131.089 361.178 C 134.181 361.360,134.290 361.587,132.490 364.097 C 131.946 364.856,131.994 365.212,132.745 366.007 C 135.621 369.051,136.722 370.895,136.626 372.509 C 136.551 373.796,136.748 374.197,137.431 374.147 C 138.078 374.098,138.348 374.544,138.381 375.716 C 138.456 378.454,138.551 378.630,139.781 378.309 C 140.545 378.109,141.203 378.342,141.666 378.976 C 142.108 379.579,142.796 379.840,143.475 379.663 C 144.908 379.288,145.809 380.429,145.487 382.209 C 145.284 383.325,145.448 383.629,146.252 383.629 C 146.815 383.629,147.429 383.878,147.617 384.182 C 147.806 384.487,148.864 385.205,149.969 385.779 C 151.074 386.353,152.469 387.577,153.070 388.499 C 153.670 389.420,154.407 390.184,154.707 390.196 C 155.495 390.228,162.074 396.494,162.074 397.212 C 162.074 397.545,162.433 397.817,162.873 397.817 C 163.313 397.817,163.935 398.308,164.256 398.909 C 164.702 399.741,165.399 400.000,167.192 400.000 C 170.185 400.000,171.351 401.197,171.351 404.272 L 171.351 406.548 178.625 406.548 C 185.827 406.548,185.908 406.535,186.630 405.184 C 187.079 404.346,187.837 403.820,188.596 403.820 C 189.352 403.820,189.965 403.396,190.177 402.729 C 190.420 401.964,191.003 401.637,192.124 401.637 C 193.004 401.637,193.724 401.427,193.724 401.171 C 193.724 399.873,196.695 397.581,198.177 397.737 C 199.097 397.833,199.727 397.637,199.727 397.255 C 199.727 396.901,200.341 395.881,201.091 394.989 C 201.852 394.086,202.456 392.676,202.456 391.805 C 202.456 390.945,202.701 390.090,203.001 389.905 C 203.302 389.719,203.547 388.706,203.547 387.653 C 203.547 386.057,203.711 385.790,204.529 386.050 C 205.518 386.364,206.216 385.758,211.823 379.717 C 213.124 378.316,214.668 376.085,215.255 374.760 L 216.323 372.351 218.930 372.601 C 220.988 372.799,221.609 372.665,221.877 371.965 C 222.065 371.477,222.785 371.078,223.479 371.078 C 226.269 371.078,227.974 367.802,225.648 366.909 C 224.634 366.520,224.577 364.314,225.555 363.336 C 225.954 362.937,226.435 361.664,226.622 360.508 C 227.056 357.837,229.765 350.887,230.373 350.887 C 230.625 350.887,230.832 350.322,230.832 349.632 C 230.832 348.941,231.055 348.143,231.326 347.858 C 233.367 345.718,235.278 340.716,235.106 337.967 C 234.952 335.493,235.067 335.060,235.880 335.061 C 236.708 335.061,236.835 334.495,236.835 330.791 C 236.835 326.914,236.964 326.399,238.233 325.207 C 240.986 322.620,241.828 320.622,241.653 317.088 C 241.551 315.019,241.739 313.568,242.164 313.143 C 242.638 312.669,242.838 310.058,242.838 304.335 C 242.838 297.578,242.967 296.250,243.603 296.493 C 244.024 296.655,244.822 296.444,245.377 296.024 C 246.546 295.138,248.840 294.971,248.840 295.771 C 248.840 296.071,249.209 296.317,249.659 296.317 C 250.109 296.317,250.477 295.948,250.477 295.498 C 250.477 295.048,250.232 294.679,249.932 294.679 C 248.634 294.679,249.283 283.524,250.614 282.940 C 252.063 282.304,252.766 269.740,251.522 266.735 C 250.354 263.917,253.650 259.200,255.081 261.642 C 255.400 262.187,256.459 263.520,257.433 264.604 C 258.407 265.688,259.205 266.768,259.206 267.003 C 259.210 267.619,262.893 271.214,263.519 271.214 C 263.809 271.214,264.202 271.705,264.393 272.306 C 264.583 272.906,265.091 273.397,265.521 273.397 C 265.951 273.397,266.303 273.749,266.303 274.179 C 266.303 274.609,266.794 275.116,267.394 275.307 C 267.995 275.497,268.486 275.866,268.486 276.126 C 268.486 276.385,268.977 276.754,269.577 276.944 C 270.177 277.135,270.668 277.614,270.668 278.009 C 270.668 278.405,271.344 279.169,272.169 279.706 C 273.559 280.612,275.227 282.076,280.522 287.040 C 281.643 288.090,283.507 289.401,284.663 289.952 C 285.820 290.503,287.462 291.301,288.312 291.725 C 289.161 292.150,290.106 292.497,290.410 292.497 C 290.715 292.497,291.616 292.936,292.412 293.473 C 293.209 294.011,295.334 295.026,297.135 295.731 C 298.936 296.435,300.693 297.361,301.041 297.790 C 301.388 298.218,302.616 298.686,303.769 298.828 C 304.923 298.971,307.340 299.484,309.141 299.968 C 310.941 300.453,313.520 301.035,314.870 301.261 C 316.221 301.487,319.291 302.217,321.692 302.883 C 324.093 303.549,326.426 304.069,326.876 304.039 C 327.326 304.010,330.939 303.776,334.905 303.521 L 342.115 303.057 344.798 300.642 C 346.273 299.313,347.571 297.950,347.683 297.612 C 347.862 297.069,352.824 291.447,357.793 286.157 C 358.740 285.149,360.041 283.236,360.685 281.906 C 361.329 280.576,362.211 279.193,362.647 278.831 C 363.082 278.470,363.438 277.728,363.438 277.181 C 363.438 276.635,363.891 275.867,364.445 275.474 C 365.372 274.818,366.115 264.809,366.280 250.750 C 366.308 248.385,365.415 245.245,364.452 244.317 C 363.894 243.780,363.432 242.921,363.426 242.407 C 363.419 241.894,362.933 240.859,362.347 240.109 C 361.760 239.359,361.274 238.292,361.267 237.740 C 361.261 237.187,360.764 236.110,360.164 235.347 C 359.563 234.584,359.064 233.563,359.055 233.078 C 359.031 231.861,358.104 230.828,355.365 228.968 C 353.979 228.026,353.136 227.080,353.302 226.649 C 353.459 226.240,353.220 225.921,352.756 225.921 C 351.746 225.921,345.975 221.727,345.975 220.992 C 345.975 220.702,345.668 220.463,345.293 220.461 C 344.918 220.460,343.693 219.615,342.570 218.584 C 337.799 214.202,320.530 212.467,312.408 215.555 C 311.583 215.869,309.461 216.146,307.693 216.171 C 305.126 216.207,304.366 216.424,303.925 217.248 C 303.524 217.998,302.772 218.281,301.182 218.281 C 299.977 218.281,298.292 218.642,297.438 219.084 C 296.584 219.526,294.816 220.049,293.509 220.248 C 292.202 220.447,290.746 220.944,290.273 221.353 C 289.800 221.762,288.695 222.142,287.817 222.197 C 286.939 222.252,285.852 222.604,285.401 222.979 C 284.951 223.355,283.885 223.927,283.033 224.251 L 281.484 224.840 282.635 223.334 C 283.268 222.506,284.698 220.477,285.813 218.827 C 286.928 217.176,288.031 215.580,288.266 215.280 C 289.442 213.773,291.405 210.534,291.405 210.098 C 291.405 209.826,291.729 209.408,292.125 209.168 C 292.520 208.928,293.635 207.334,294.602 205.625 C 296.687 201.942,300.198 198.101,316.371 181.813 C 323.049 175.087,328.513 169.458,328.513 169.302 C 328.513 168.903,331.219 166.442,331.679 166.424 C 331.889 166.416,332.674 165.572,333.424 164.549 C 334.175 163.526,335.703 162.120,336.820 161.426 C 337.938 160.732,338.860 159.918,338.870 159.618 C 338.880 159.318,339.797 158.458,340.907 157.708 C 343.688 155.828,347.367 152.429,353.840 145.760 C 356.868 142.640,361.678 137.723,364.529 134.833 C 373.008 126.239,384.282 114.449,386.782 111.563 C 388.066 110.080,389.990 107.885,391.057 106.685 C 393.173 104.304,395.713 100.528,395.857 99.550 C 395.907 99.211,396.614 98.141,397.428 97.174 C 398.242 96.206,398.909 95.173,398.909 94.878 C 398.909 94.583,399.154 94.494,399.454 94.679 C 399.814 94.901,400.000 89.319,400.000 78.341 C 400.000 66.383,399.828 61.703,399.393 61.801 C 399.059 61.876,397.208 60.095,395.279 57.844 C 393.351 55.593,391.045 52.989,390.156 52.056 C 389.268 51.123,388.540 50.079,388.540 49.737 C 388.540 49.394,388.345 49.113,388.106 49.113 C 387.867 49.113,386.209 47.245,384.422 44.961 C 380.678 40.175,377.898 37.790,375.510 37.312 C 374.586 37.127,373.550 36.637,373.206 36.223 C 372.862 35.809,371.990 35.471,371.267 35.471 C 370.544 35.471,369.820 35.126,369.659 34.706 C 369.497 34.285,368.546 33.787,367.546 33.600 C 366.545 33.412,365.587 32.897,365.418 32.454 C 365.244 32.002,364.416 31.651,363.522 31.651 C 362.649 31.651,361.629 31.282,361.255 30.832 C 360.881 30.382,359.969 30.014,359.227 30.014 C 358.338 30.014,357.782 29.642,357.593 28.922 C 357.389 28.139,356.849 27.831,355.684 27.831 C 354.791 27.831,353.436 27.340,352.673 26.739 C 351.910 26.139,350.697 25.648,349.977 25.648 C 349.258 25.648,348.528 25.280,348.356 24.829 C 348.166 24.335,347.342 24.011,346.274 24.011 C 345.201 24.011,344.120 23.583,343.520 22.920 C 342.921 22.258,341.839 21.828,340.774 21.828 C 339.806 21.828,338.709 21.460,338.336 21.010 C 337.962 20.559,337.004 20.191,336.207 20.191 C 335.410 20.191,334.338 19.700,333.824 19.100 C 333.310 18.499,332.402 18.008,331.807 18.008 C 331.212 18.008,329.675 17.531,328.391 16.947 C 327.108 16.364,325.372 15.743,324.534 15.567 C 323.697 15.391,323.157 15.012,323.335 14.724 C 323.513 14.436,323.336 14.324,322.943 14.475 C 322.549 14.626,321.247 14.247,320.049 13.632 C 317.660 12.406,312.795 11.197,307.097 10.412 C 305.073 10.134,302.641 9.519,301.693 9.046 C 300.745 8.573,299.014 8.186,297.847 8.186 C 296.680 8.186,293.933 7.815,291.743 7.363 C 289.553 6.911,286.064 6.312,283.990 6.033 C 278.431 5.286,273.986 4.389,271.214 3.456 C 269.600 2.913,264.832 2.454,257.299 2.117 C 250.996 1.835,244.366 1.335,242.565 1.006 C 237.105 0.009,146.240 -0.110,142.428 0.874 M216.098 19.178 C 216.098 19.435,215.853 19.645,215.553 19.645 C 215.252 19.645,215.007 20.490,215.007 21.523 C 215.007 22.556,214.761 23.553,214.461 23.738 C 214.161 23.924,213.915 24.783,213.915 25.648 C 213.915 26.513,213.687 27.362,213.408 27.534 C 213.129 27.707,212.742 29.256,212.549 30.977 C 212.356 32.698,211.876 34.966,211.484 36.016 C 211.091 37.067,210.587 40.014,210.364 42.565 C 210.141 45.116,209.738 47.694,209.469 48.295 C 209.048 49.232,209.015 49.194,209.235 48.022 C 209.376 47.271,209.660 44.079,209.866 40.928 C 210.072 37.776,210.510 34.707,210.839 34.106 C 211.168 33.506,211.632 31.050,211.869 28.649 C 212.900 18.228,212.738 18.833,214.505 18.769 C 215.381 18.737,216.098 18.921,216.098 19.178 M165.136 32.171 C 165.304 34.409,165.789 36.735,166.213 37.340 C 166.763 38.125,166.985 40.142,166.985 44.350 C 166.985 48.270,167.236 50.755,167.732 51.732 C 168.143 52.543,168.598 54.931,168.742 57.039 C 168.886 59.147,169.266 61.357,169.586 61.950 C 170.117 62.936,171.449 75.746,171.287 78.308 C 171.249 78.909,170.897 77.190,170.506 74.488 C 170.114 71.787,169.392 67.735,168.902 65.484 C 167.840 60.607,167.327 57.588,166.445 51.023 C 166.083 48.322,165.598 45.866,165.368 45.566 C 165.138 45.266,164.786 41.218,164.585 36.571 C 164.384 31.924,163.982 27.884,163.692 27.594 C 163.402 27.304,163.165 26.025,163.165 24.753 C 163.165 23.480,162.920 22.286,162.619 22.101 C 161.737 21.555,161.994 20.287,163.029 20.084 C 164.036 19.887,164.348 21.677,165.136 32.171 M128.482 29.589 C 128.949 30.256,129.332 31.321,129.332 31.954 C 129.332 32.588,129.516 33.289,129.741 33.512 C 129.966 33.736,130.454 35.680,130.825 37.833 C 131.197 39.985,131.659 42.663,131.851 43.785 C 132.044 44.906,132.538 46.102,132.949 46.443 C 133.361 46.785,133.660 47.832,133.615 48.771 C 133.536 50.420,133.526 50.427,133.306 48.977 C 133.181 48.151,132.877 47.476,132.630 47.476 C 132.383 47.476,131.854 46.371,131.455 45.020 C 131.057 43.670,130.538 42.565,130.304 42.565 C 130.069 42.565,129.877 41.630,129.877 40.488 C 129.877 39.146,129.408 37.776,128.552 36.615 C 127.823 35.627,127.068 33.799,126.875 32.553 C 126.682 31.306,126.402 29.857,126.254 29.332 C 125.860 27.939,127.456 28.124,128.482 29.589 M271.101 35.031 C 269.265 37.334,264.120 45.426,264.120 46.011 C 264.120 46.174,263.188 47.737,262.049 49.484 C 260.910 51.231,259.531 53.765,258.984 55.116 C 257.460 58.880,255.294 63.295,254.833 63.581 C 254.605 63.722,254.250 64.507,254.045 65.325 C 253.515 67.436,251.024 72.578,250.531 72.578 C 250.304 72.578,249.544 73.806,248.841 75.305 C 248.139 76.805,247.479 77.947,247.374 77.843 C 247.270 77.738,247.952 75.959,248.890 73.888 C 251.782 67.504,252.115 66.702,252.115 66.115 C 252.115 65.233,254.346 61.664,254.897 61.664 C 255.168 61.664,255.389 61.135,255.389 60.488 C 255.389 59.841,256.003 58.507,256.753 57.523 C 257.503 56.539,258.119 55.411,258.121 55.016 C 258.123 54.621,258.618 53.561,259.222 52.660 C 259.825 51.760,260.936 49.795,261.690 48.295 C 263.577 44.538,272.329 32.064,272.776 32.493 C 272.885 32.597,272.131 33.739,271.101 35.031 M73.807 39.700 C 74.169 40.525,74.594 41.323,74.750 41.473 C 75.255 41.959,77.294 44.986,77.966 46.248 C 79.032 48.251,78.295 47.649,76.665 45.186 C 74.709 42.231,74.274 41.689,72.320 39.783 C 70.760 38.260,70.745 38.199,71.923 38.199 C 72.735 38.199,73.370 38.704,73.807 39.700 M301.812 46.794 C 300.557 48.220,299.052 49.886,298.469 50.497 C 297.885 51.108,297.408 51.767,297.408 51.962 C 297.408 53.802,296.264 55.141,295.416 54.294 C 294.583 53.460,294.599 53.311,295.651 52.209 C 298.796 48.916,300.894 46.537,301.629 45.430 C 302.078 44.754,302.816 44.202,303.270 44.202 C 303.802 44.202,303.284 45.123,301.812 46.794 M81.275 52.115 C 81.275 52.415,80.914 52.184,80.474 51.601 C 80.033 51.018,79.673 50.296,79.673 49.996 C 79.673 49.696,80.033 49.927,80.474 50.510 C 80.914 51.092,81.275 51.814,81.275 52.115 M208.891 54.270 C 208.653 54.555,208.417 56.397,208.367 58.363 C 208.301 60.932,208.211 61.324,208.048 59.754 C 207.690 56.320,208.574 48.717,208.999 51.569 C 209.178 52.769,209.130 53.985,208.891 54.270 M134.716 52.387 C 135.247 52.387,136.661 58.882,136.225 59.318 C 136.035 59.508,135.872 59.070,135.861 58.345 C 135.851 57.619,135.368 56.044,134.789 54.843 C 134.209 53.643,133.754 52.169,133.779 51.569 C 133.816 50.656,133.865 50.634,134.073 51.432 C 134.211 51.958,134.500 52.387,134.716 52.387 M342.307 54.904 C 342.491 55.087,341.934 55.832,341.069 56.560 C 340.205 57.287,339.421 58.423,339.326 59.085 C 339.227 59.779,338.692 60.372,338.063 60.485 C 337.462 60.594,336.419 61.191,335.744 61.814 L 334.516 62.946 334.516 61.214 C 334.516 60.022,334.776 59.482,335.351 59.482 C 335.811 59.482,336.328 59.113,336.501 58.663 C 336.674 58.213,337.149 57.844,337.556 57.844 C 337.964 57.844,338.560 57.353,338.881 56.753 C 339.203 56.153,339.825 55.662,340.265 55.662 C 340.704 55.662,341.064 55.416,341.064 55.116 C 341.064 54.510,341.790 54.386,342.307 54.904 M86.215 60.846 C 86.216 61.146,85.727 60.588,85.128 59.605 C 83.715 57.288,83.717 56.530,85.130 58.663 C 85.726 59.563,86.215 60.546,86.215 60.846 M138.347 63.100 C 139.174 64.790,139.909 67.184,139.980 68.421 C 140.052 69.657,139.999 70.055,139.863 69.304 C 139.727 68.554,139.389 67.707,139.112 67.422 C 138.835 67.136,138.608 66.507,138.608 66.023 C 138.608 65.540,138.117 64.127,137.517 62.885 C 136.917 61.642,136.426 60.491,136.426 60.326 C 136.426 59.506,136.980 60.306,138.347 63.100 M88.746 65.114 C 90.433 68.491,89.744 67.926,87.609 64.184 C 86.774 62.718,86.369 61.692,86.711 61.903 C 87.053 62.114,87.969 63.559,88.746 65.114 M207.913 68.791 C 207.913 73.039,207.719 75.252,207.367 75.034 C 206.408 74.441,206.724 62.210,207.698 62.210 C 207.816 62.210,207.913 65.171,207.913 68.791 M92.608 71.760 C 93.073 72.660,93.314 73.268,93.143 73.110 C 92.510 72.525,90.042 68.697,90.058 68.325 C 90.083 67.774,91.612 69.834,92.608 71.760 M321.839 69.952 C 321.502 70.964,320.327 71.132,320.327 70.168 C 320.327 69.693,320.716 69.304,321.191 69.304 C 321.667 69.304,321.958 69.596,321.839 69.952 M40.111 72.036 C 40.689 72.970,39.843 72.629,38.586 71.420 L 37.381 70.261 38.578 70.877 C 39.237 71.216,39.926 71.737,40.111 72.036 M320.202 71.930 C 320.322 72.289,319.923 72.578,319.309 72.578 C 318.698 72.578,318.002 72.911,317.762 73.317 C 317.308 74.087,315.269 75.319,314.497 75.291 C 314.252 75.282,315.157 74.307,316.508 73.125 C 318.960 70.979,319.795 70.709,320.202 71.930 M141.276 73.261 C 141.817 74.883,141.799 74.944,141.057 73.975 C 140.611 73.392,140.246 72.594,140.246 72.201 C 140.246 70.984,140.658 71.409,141.276 73.261 M48.036 79.607 C 49.094 80.693,50.783 82.735,51.789 84.143 C 52.795 85.551,53.945 86.829,54.344 86.982 C 54.743 87.135,56.466 89.175,58.172 91.516 C 59.879 93.856,62.149 96.692,63.218 97.817 C 64.671 99.348,64.926 99.864,64.231 99.864 C 63.720 99.864,63.302 99.675,63.302 99.445 C 63.302 99.214,62.251 97.925,60.967 96.580 C 59.684 95.234,58.068 93.213,57.376 92.087 C 56.684 90.962,55.926 90.041,55.691 90.041 C 55.457 90.041,54.556 89.011,53.689 87.751 C 52.823 86.492,51.569 84.867,50.902 84.140 C 50.235 83.414,48.908 81.805,47.954 80.564 C 46.999 79.323,45.285 77.572,44.144 76.671 C 43.003 75.771,42.058 74.824,42.044 74.568 C 42.015 74.026,45.258 76.753,48.036 79.607 M208.985 108.463 C 209.019 125.603,208.841 135.164,208.475 135.849 C 208.166 136.427,207.913 138.463,207.913 140.373 C 207.913 142.284,207.677 144.083,207.389 144.370 C 207.102 144.658,206.643 146.856,206.369 149.254 C 205.937 153.053,205.863 152.150,205.801 142.256 C 205.760 135.653,205.956 130.474,206.270 129.887 C 206.567 129.332,206.838 126.831,206.872 124.330 C 206.905 121.810,207.212 119.439,207.559 119.014 C 208.006 118.465,208.186 112.226,208.186 97.185 C 208.186 85.603,208.353 77.476,208.559 79.127 C 208.764 80.778,208.956 93.979,208.985 108.463 M310.668 78.757 C 310.428 79.154,309.127 80.431,307.776 81.594 L 305.321 83.709 308.029 80.872 C 310.771 78.000,311.460 77.447,310.668 78.757 M246.307 81.403 C 245.846 82.954,245.000 85.099,244.426 86.169 C 243.853 87.239,243.383 88.287,243.383 88.497 C 243.383 89.269,242.254 91.822,242.017 91.585 C 241.748 91.316,243.770 85.730,244.452 84.857 C 244.686 84.557,245.174 83.329,245.536 82.128 C 246.589 78.638,246.611 78.581,246.884 78.581 C 247.027 78.581,246.767 79.851,246.307 81.403 M172.395 83.220 C 172.372 84.935,172.265 85.169,171.896 84.311 C 171.212 82.718,171.212 79.159,171.896 80.218 C 172.187 80.668,172.412 82.019,172.395 83.220 M275.240 83.364 C 274.827 83.778,274.488 84.686,274.488 85.383 C 274.488 86.080,274.120 86.791,273.670 86.964 C 273.220 87.137,272.851 87.926,272.851 88.717 C 272.851 89.509,272.237 90.886,271.487 91.778 C 270.737 92.669,270.123 93.795,270.123 94.280 C 270.123 95.031,270.015 95.013,269.390 94.159 C 268.691 93.203,268.617 93.216,267.753 94.449 C 266.310 96.510,266.703 95.244,268.567 91.827 C 269.513 90.094,270.993 87.265,271.857 85.539 C 272.721 83.813,273.666 82.401,273.958 82.401 C 274.250 82.401,274.488 81.986,274.488 81.478 C 274.488 80.663,274.576 80.675,275.240 81.584 C 275.879 82.457,275.879 82.725,275.240 83.364 M304.202 85.278 C 304.055 85.659,303.424 86.291,302.800 86.681 C 301.672 87.385,301.671 87.380,302.674 86.004 C 303.740 84.540,304.651 84.107,304.202 85.278 M174.110 90.898 C 174.393 91.820,174.617 93.662,174.608 94.991 C 174.584 98.538,173.751 96.555,173.331 91.951 C 173.139 89.850,172.864 87.517,172.720 86.767 C 172.575 86.016,172.713 86.262,173.026 87.312 C 173.339 88.363,173.827 89.977,174.110 90.898 M109.141 96.786 C 109.141 97.057,110.000 98.474,111.050 99.936 C 112.101 101.398,112.960 102.769,112.960 102.982 C 112.960 103.593,109.767 99.763,108.790 97.980 C 108.305 97.095,107.571 96.033,107.160 95.622 C 106.749 95.211,106.412 94.579,106.412 94.219 C 106.412 93.859,105.713 92.710,104.859 91.666 C 103.251 89.702,102.046 87.690,102.046 86.971 C 102.046 86.743,103.643 88.748,105.593 91.426 C 107.544 94.104,109.141 96.516,109.141 96.786 M301.429 88.540 C 301.205 88.915,299.349 91.395,297.305 94.051 C 295.260 96.707,293.584 99.285,293.579 99.781 C 293.573 100.277,293.011 101.211,292.329 101.857 C 291.646 102.503,290.607 103.977,290.019 105.131 C 289.431 106.286,288.675 107.409,288.339 107.627 C 288.003 107.845,287.400 108.827,286.998 109.810 C 286.596 110.792,285.950 111.921,285.562 112.317 C 285.174 112.714,284.857 113.649,284.857 114.395 C 284.857 115.681,282.812 119.921,281.338 121.692 C 280.964 122.142,280.494 122.879,280.295 123.329 C 280.096 123.779,279.459 124.884,278.879 125.784 C 277.028 128.657,276.126 130.562,276.126 131.598 C 276.126 132.152,275.941 132.612,275.716 132.620 C 275.491 132.628,274.705 133.611,273.969 134.803 C 273.234 135.996,272.298 136.971,271.891 136.971 C 271.483 136.971,271.283 137.186,271.445 137.449 C 271.607 137.712,271.008 138.937,270.113 140.173 C 269.218 141.408,268.486 142.882,268.486 143.448 C 268.486 144.014,268.117 144.783,267.667 145.157 C 267.217 145.531,266.849 146.179,266.849 146.598 C 266.849 147.627,264.233 152.569,263.262 153.375 C 262.834 153.731,262.483 154.375,262.483 154.807 C 262.483 155.771,259.860 161.398,259.229 161.788 C 258.978 161.943,258.478 163.299,258.118 164.801 C 257.757 166.302,257.289 167.531,257.077 167.531 C 256.001 167.531,254.686 172.115,255.298 173.734 C 255.798 175.059,255.761 175.549,255.107 176.271 C 254.072 177.415,254.072 180.123,255.107 182.601 C 256.540 186.031,253.313 188.813,251.359 185.831 C 250.302 184.217,250.090 171.844,251.076 169.330 C 251.754 167.603,253.515 163.656,254.638 161.347 C 255.051 160.498,255.389 159.497,255.389 159.123 C 255.389 158.750,256.003 157.867,256.753 157.162 C 257.503 156.457,258.117 155.581,258.117 155.216 C 258.117 154.850,259.351 152.253,260.859 149.445 C 262.367 146.636,263.742 143.926,263.914 143.421 C 264.087 142.917,264.572 142.372,264.992 142.210 C 265.413 142.049,265.757 141.285,265.757 140.512 C 265.757 139.739,266.374 138.442,267.127 137.630 C 267.881 136.817,268.637 135.715,268.807 135.180 C 268.977 134.645,269.709 133.568,270.433 132.787 C 271.157 132.006,271.977 130.543,272.254 129.537 C 272.532 128.531,273.087 127.364,273.488 126.944 C 275.054 125.298,276.126 123.839,276.126 123.350 C 276.126 123.068,276.924 121.705,277.899 120.321 C 278.874 118.936,280.409 116.489,281.310 114.883 C 283.712 110.597,287.691 104.775,288.219 104.775 C 288.471 104.775,288.677 104.491,288.677 104.144 C 288.677 103.797,289.247 102.754,289.945 101.825 C 290.642 100.896,291.371 99.707,291.565 99.181 C 291.758 98.656,292.231 98.225,292.616 98.223 C 293.370 98.219,295.771 95.005,295.771 94.000 C 295.771 93.664,296.201 93.243,296.726 93.066 C 297.251 92.888,298.508 91.644,299.518 90.300 C 301.228 88.028,302.362 86.984,301.429 88.540 M344.003 97.441 C 343.180 98.521,341.752 100.188,340.830 101.146 C 339.908 102.104,338.223 103.927,337.086 105.196 C 335.948 106.465,334.810 107.503,334.557 107.503 C 334.304 107.503,333.975 107.972,333.825 108.545 C 333.675 109.118,332.480 110.363,331.169 111.313 C 329.858 112.263,328.854 113.151,328.938 113.288 C 329.022 113.424,328.119 114.573,326.931 115.840 C 322.804 120.243,320.343 123.058,320.335 123.382 C 320.331 123.561,319.807 124.298,319.170 125.019 C 317.039 127.433,313.779 132.007,313.779 132.582 C 313.779 132.895,313.226 133.695,312.551 134.359 C 311.380 135.510,309.238 138.189,304.479 144.451 C 303.291 146.014,302.304 147.611,302.285 147.999 C 302.266 148.387,302.018 148.126,301.735 147.419 C 301.389 146.553,300.937 146.243,300.352 146.468 C 299.874 146.651,300.551 145.546,301.856 144.012 C 305.007 140.308,307.104 137.486,307.689 136.162 C 308.151 135.118,308.182 135.124,308.563 136.327 C 308.865 137.278,309.129 137.434,309.673 136.982 C 310.586 136.225,311.118 134.243,310.408 134.243 C 309.347 134.243,311.578 131.115,315.553 127.028 C 316.678 125.871,317.599 124.807,317.599 124.664 C 317.599 124.368,321.507 119.518,325.160 115.280 C 326.518 113.704,327.935 112.415,328.307 112.415 C 328.680 112.415,329.546 111.617,330.231 110.641 C 330.917 109.666,331.732 108.580,332.042 108.229 C 332.654 107.536,333.918 105.903,335.665 103.547 C 336.277 102.722,337.128 102.046,337.557 102.046 C 337.985 102.046,338.336 101.734,338.336 101.352 C 338.336 100.971,339.379 99.506,340.655 98.097 C 341.930 96.688,343.465 94.946,344.065 94.226 L 345.157 92.916 345.329 94.197 C 345.431 94.961,344.896 96.271,344.003 97.441 M268.045 99.262 C 267.740 100.033,267.677 100.024,267.507 99.181 C 267.401 98.656,266.964 98.226,266.536 98.226 C 265.743 98.226,265.499 97.575,266.076 96.998 C 266.680 96.394,268.397 98.369,268.045 99.262 M175.702 106.139 C 175.733 108.586,176.039 110.340,176.552 111.018 C 177.104 111.749,177.353 113.459,177.353 116.525 C 177.353 118.971,177.721 122.178,178.171 123.651 C 178.776 125.634,179.048 130.020,179.217 140.518 C 179.483 156.970,178.735 153.685,177.912 134.789 C 177.197 118.372,176.767 113.330,176.000 112.415 C 175.567 111.898,175.214 109.080,175.043 104.775 C 174.877 100.617,174.943 98.806,175.212 100.136 C 175.455 101.337,175.675 104.038,175.702 106.139 M150.060 106.057 C 150.064 106.612,150.416 107.839,150.842 108.785 C 151.913 111.166,154.290 118.327,154.706 120.426 C 154.895 121.381,155.402 122.455,155.833 122.812 C 156.264 123.170,156.618 124.108,156.620 124.896 C 156.622 125.685,156.990 127.034,157.439 127.893 C 157.887 128.753,158.256 130.104,158.259 130.895 C 158.262 131.686,158.876 133.646,159.623 135.252 C 160.371 136.858,160.985 138.699,160.988 139.345 C 160.991 139.990,161.360 141.725,161.808 143.200 C 162.255 144.676,162.531 145.973,162.421 146.083 C 162.120 146.384,161.145 143.607,160.430 140.409 C 160.081 138.848,159.448 137.283,159.024 136.932 C 158.601 136.580,158.254 135.813,158.254 135.228 C 158.254 134.643,157.885 133.797,157.435 133.346 C 156.985 132.896,156.617 132.020,156.617 131.399 C 156.617 130.778,156.285 129.998,155.880 129.665 C 155.475 129.331,154.716 127.647,154.193 125.922 C 153.670 124.197,153.019 122.647,152.746 122.479 C 152.474 122.311,152.251 121.481,152.251 120.635 C 152.251 119.789,151.883 118.791,151.432 118.417 C 150.918 117.991,150.614 116.789,150.614 115.186 C 150.614 113.782,150.322 112.341,149.965 111.984 C 149.197 111.217,149.215 111.321,148.781 105.048 C 148.444 100.172,148.448 100.154,149.247 102.592 C 149.689 103.943,150.055 105.502,150.060 106.057 M115.551 107.094 C 116.207 108.220,116.646 109.141,116.528 109.141 C 116.261 109.141,112.960 104.283,112.960 103.890 C 112.960 103.329,114.381 105.086,115.551 107.094 M69.206 105.597 C 69.549 106.349,70.632 107.867,71.613 108.971 C 73.261 110.824,78.857 116.917,80.764 118.935 C 81.214 119.411,82.414 120.856,83.430 122.146 C 84.446 123.436,86.394 125.577,87.759 126.903 C 89.123 128.229,90.090 129.464,89.907 129.648 C 89.723 129.831,89.126 129.441,88.579 128.782 C 88.033 128.122,86.357 126.310,84.857 124.756 C 83.356 123.201,81.428 121.077,80.572 120.037 C 77.787 116.650,74.713 113.506,74.186 113.506 C 73.902 113.506,73.670 113.192,73.670 112.809 C 73.670 112.425,73.240 111.735,72.715 111.274 C 72.190 110.814,71.146 109.621,70.396 108.624 C 69.645 107.628,68.602 106.316,68.076 105.710 C 66.929 104.386,66.905 104.229,67.852 104.229 C 68.254 104.229,68.864 104.845,69.206 105.597 M234.555 110.897 C 234.120 111.582,233.446 113.615,233.057 115.416 C 232.180 119.481,230.887 123.799,230.115 125.239 C 229.794 125.839,229.355 127.775,229.141 129.541 C 228.927 131.306,228.544 132.903,228.291 133.088 C 226.961 134.061,224.284 142.313,224.284 145.442 C 224.284 146.150,224.067 146.864,223.801 147.028 C 223.536 147.192,223.147 148.466,222.938 149.860 C 222.516 152.679,221.810 154.551,220.370 156.678 C 219.839 157.462,219.561 158.261,219.752 158.452 C 219.944 158.643,219.833 158.799,219.507 158.799 C 219.180 158.799,218.741 159.584,218.531 160.542 C 218.320 161.501,217.810 162.623,217.396 163.037 C 216.982 163.450,216.644 164.730,216.644 165.881 C 216.644 167.706,216.504 167.938,215.553 167.689 C 214.202 167.336,213.985 164.010,215.280 163.513 C 215.753 163.332,216.098 162.516,216.098 161.577 C 216.098 160.685,216.344 159.804,216.644 159.618 C 216.944 159.433,217.197 157.515,217.207 155.357 C 217.218 152.774,217.498 151.070,218.026 150.373 C 218.466 149.791,218.827 148.379,218.827 147.235 C 218.827 145.521,219.018 145.157,219.918 145.157 C 220.518 145.157,221.010 144.822,221.010 144.412 C 221.010 144.002,221.501 143.043,222.101 142.279 C 222.701 141.516,223.192 140.493,223.192 140.006 C 223.192 139.519,223.561 138.979,224.011 138.806 C 224.466 138.631,224.829 137.820,224.829 136.980 C 224.829 136.148,225.198 135.162,225.648 134.789 C 226.098 134.415,226.467 133.727,226.467 133.260 C 226.467 132.288,227.384 129.313,228.460 126.793 C 228.864 125.848,229.195 124.343,229.195 123.450 C 229.195 122.556,229.537 121.542,229.954 121.195 C 230.372 120.849,230.842 119.898,231.000 119.082 C 231.696 115.470,234.525 108.831,235.115 109.421 C 235.242 109.548,234.990 110.212,234.555 110.897 M119.319 112.852 C 120.122 114.262,121.375 116.067,122.104 116.863 C 122.833 117.659,123.332 118.764,123.214 119.318 C 123.049 120.084,122.712 119.781,121.813 118.059 C 121.162 116.811,120.429 115.706,120.183 115.603 C 119.938 115.500,119.057 114.103,118.226 112.499 C 116.398 108.969,117.268 109.251,119.319 112.852 M255.419 123.551 C 255.697 123.845,256.270 123.734,256.825 123.278 C 257.772 122.502,256.808 124.377,255.149 126.538 C 254.831 126.952,254.291 128.549,253.949 130.085 C 253.519 132.023,253.310 132.414,253.267 131.361 C 253.234 130.526,252.839 129.702,252.391 129.530 C 251.438 129.165,251.709 127.628,253.265 124.576 C 253.833 123.463,254.326 122.174,254.361 121.713 C 254.399 121.203,254.527 121.302,254.687 121.965 C 254.831 122.565,255.160 123.279,255.419 123.551 M128.409 128.306 C 130.473 132.047,130.048 132.169,127.857 128.465 C 126.895 126.841,126.281 125.515,126.492 125.519 C 126.703 125.524,127.566 126.778,128.409 128.306 M40.555 133.095 C 43.311 135.165,47.006 138.235,48.766 139.916 C 50.526 141.598,52.203 142.974,52.492 142.974 C 52.782 142.974,53.962 143.956,55.116 145.157 C 56.269 146.357,57.464 147.340,57.771 147.340 C 58.078 147.340,59.264 148.198,60.406 149.247 C 61.548 150.296,62.752 151.156,63.080 151.157 C 63.409 151.158,64.123 151.651,64.666 152.251 C 65.209 152.851,65.957 153.342,66.329 153.342 C 66.701 153.342,67.146 153.711,67.319 154.161 C 67.492 154.611,68.091 154.980,68.652 154.980 C 69.212 154.980,71.488 156.698,73.709 158.799 C 75.929 160.900,77.934 162.619,78.164 162.619 C 78.393 162.619,79.541 163.540,80.714 164.666 C 81.888 165.791,84.596 168.281,86.732 170.198 C 88.869 172.116,90.485 173.817,90.323 173.979 C 90.162 174.140,89.560 173.799,88.986 173.221 C 86.285 170.499,80.221 165.916,79.269 165.877 C 77.769 165.815,72.972 162.877,71.055 160.846 C 70.559 160.321,69.901 159.888,69.592 159.885 C 69.284 159.882,68.540 159.259,67.940 158.500 C 66.115 156.194,64.169 154.434,63.444 154.434 C 63.065 154.434,62.756 154.214,62.756 153.946 C 62.756 153.264,59.706 150.068,59.055 150.068 C 58.761 150.068,57.570 149.025,56.409 147.749 C 55.248 146.473,53.438 144.780,52.387 143.987 C 51.337 143.193,48.636 140.805,46.385 138.679 C 44.134 136.553,41.989 134.809,41.620 134.801 C 41.250 134.794,40.093 133.990,39.048 133.015 C 38.003 132.040,36.587 130.823,35.900 130.311 C 35.214 129.799,34.853 129.369,35.098 129.356 C 35.343 129.342,37.798 131.025,40.555 133.095 M217.952 153.644 C 217.602 155.041,218.111 157.162,218.797 157.162 C 219.531 157.162,220.317 155.897,220.702 154.093 C 221.174 151.883,218.503 151.448,217.952 153.644 M297.109 155.030 C 296.629 155.959,296.134 156.616,296.009 156.491 C 295.677 156.159,297.060 153.352,297.558 153.347 C 297.791 153.344,297.589 154.102,297.109 155.030 M119.572 161.070 C 121.248 163.425,120.476 162.920,118.394 160.300 C 117.380 159.025,116.982 158.327,117.510 158.751 C 118.037 159.175,118.965 160.218,119.572 161.070 M289.222 161.175 C 289.222 161.282,288.608 162.031,287.858 162.841 C 287.108 163.650,286.494 164.132,286.494 163.910 C 286.494 163.689,287.028 162.940,287.680 162.245 C 288.816 161.037,289.222 160.755,289.222 161.175 M170.532 166.981 C 171.202 167.266,170.255 167.333,168.076 167.153 C 163.049 166.739,160.324 167.592,159.035 169.984 C 157.845 172.195,156.869 172.592,157.835 170.472 C 159.104 167.686,150.088 166.275,145.773 168.584 C 145.173 168.905,143.575 169.168,142.220 169.168 C 140.641 169.168,138.837 169.657,137.192 170.532 C 135.781 171.282,134.079 171.896,133.410 171.896 C 132.741 171.896,131.888 172.265,131.514 172.715 C 131.141 173.165,130.391 173.533,129.849 173.533 C 129.307 173.533,128.528 173.869,128.117 174.280 C 127.707 174.691,126.862 175.188,126.240 175.385 C 125.619 175.583,124.671 176.229,124.135 176.822 C 123.598 177.414,122.707 177.899,122.153 177.899 C 121.599 177.899,121.146 178.267,121.146 178.718 C 121.146 179.168,120.738 179.536,120.240 179.536 C 118.891 179.536,108.049 191.101,108.049 192.539 C 108.049 192.827,107.716 193.190,107.308 193.346 C 106.128 193.799,105.783 197.641,106.660 200.555 C 107.233 202.458,107.441 206.145,107.432 214.212 C 107.420 225.343,107.523 226.804,108.917 235.118 C 109.840 240.628,110.669 242.509,112.272 242.738 C 113.425 242.902,113.441 242.975,112.616 244.234 C 112.086 245.044,111.836 246.302,111.972 247.472 C 112.323 250.477,111.573 249.711,110.773 246.248 C 110.375 244.523,109.872 242.865,109.656 242.565 C 109.440 242.265,109.091 240.742,108.881 239.182 C 108.672 237.621,108.153 236.056,107.729 235.704 C 107.305 235.352,106.958 234.807,106.958 234.492 C 106.958 234.177,106.534 233.452,106.017 232.880 C 104.892 231.637,104.780 230.533,104.316 216.098 L 103.956 204.911 102.568 204.750 C 100.878 204.553,98.772 206.249,98.772 207.808 C 98.772 208.430,98.527 209.091,98.226 209.277 C 97.926 209.462,97.673 211.012,97.664 212.720 C 97.646 216.166,96.892 215.724,96.282 211.910 C 96.011 210.217,96.153 209.518,96.927 208.744 C 97.473 208.198,98.005 207.114,98.110 206.334 C 98.214 205.554,98.619 204.547,99.008 204.095 C 99.398 203.644,99.880 202.587,100.080 201.746 C 100.280 200.906,101.541 198.649,102.882 196.730 C 104.223 194.811,105.321 193.068,105.321 192.856 C 105.321 192.644,106.119 191.660,107.094 190.670 C 108.070 189.679,109.727 187.877,110.778 186.665 C 114.765 182.064,118.270 178.929,121.014 177.509 C 121.837 177.083,123.001 176.289,123.602 175.743 C 124.202 175.197,125.223 174.590,125.872 174.394 C 126.520 174.197,127.348 173.678,127.712 173.239 C 128.076 172.801,128.940 172.442,129.632 172.442 C 130.324 172.442,131.257 172.075,131.705 171.627 C 132.153 171.179,133.460 170.666,134.609 170.486 C 135.758 170.307,137.127 169.778,137.650 169.310 C 138.198 168.820,139.936 168.370,141.743 168.250 C 143.471 168.134,145.252 167.876,145.703 167.674 C 146.153 167.473,150.205 167.159,154.707 166.977 C 167.101 166.474,169.344 166.475,170.532 166.981 M183.629 167.229 C 187.231 167.359,190.300 167.485,190.450 167.510 C 190.600 167.535,189.864 167.948,188.813 168.428 C 187.763 168.908,185.494 169.946,183.773 170.735 C 182.051 171.524,180.639 172.476,180.635 172.851 C 180.631 173.226,180.382 173.533,180.082 173.533 C 179.036 173.533,178.709 173.675,177.416 174.693 C 176.700 175.256,175.862 175.716,175.552 175.716 C 175.242 175.716,174.600 176.073,174.125 176.509 C 173.650 176.946,172.708 177.805,172.033 178.419 C 171.357 179.034,170.429 179.536,169.969 179.536 C 169.510 179.536,168.992 179.905,168.819 180.355 C 168.647 180.805,168.172 181.173,167.764 181.173 C 167.357 181.173,166.761 181.664,166.439 182.265 C 166.118 182.865,165.532 183.356,165.138 183.356 C 164.438 183.356,154.980 192.181,154.980 192.834 C 154.980 193.015,153.936 194.241,152.660 195.558 C 149.031 199.308,147.340 201.260,147.340 201.701 C 147.340 201.925,145.962 203.907,144.277 206.106 C 142.593 208.304,140.807 210.900,140.308 211.873 C 139.809 212.846,138.793 214.461,138.050 215.462 C 137.307 216.462,136.690 217.445,136.679 217.645 C 136.628 218.589,134.977 220.464,134.196 220.464 C 132.722 220.464,129.332 225.861,129.332 228.209 C 129.332 228.678,128.963 229.367,128.513 229.741 C 128.063 230.114,127.694 230.641,127.694 230.910 C 127.694 231.179,127.080 232.372,126.330 233.561 C 125.580 234.749,124.966 236.095,124.966 236.551 C 124.966 237.007,124.725 237.381,124.431 237.381 C 124.136 237.381,123.741 237.995,123.553 238.745 C 123.365 239.495,122.995 240.109,122.731 240.109 C 122.468 240.109,121.914 240.907,121.501 241.883 C 121.089 242.858,120.226 244.124,119.584 244.696 C 118.942 245.268,118.417 246.051,118.417 246.437 C 118.417 246.823,118.143 247.308,117.808 247.516 C 117.384 247.778,117.264 247.203,117.413 245.633 C 117.547 244.234,117.415 243.451,117.068 243.578 C 115.401 244.184,114.598 242.792,114.661 239.408 C 114.696 237.543,114.836 236.446,114.974 236.971 C 115.355 238.429,116.743 238.109,117.340 236.426 C 117.633 235.600,118.118 234.499,118.418 233.977 C 118.718 233.456,118.967 232.228,118.971 231.249 C 118.976 230.269,119.327 228.363,119.750 227.012 C 120.500 224.623,120.513 224.698,120.211 229.797 C 119.859 235.732,120.046 236.065,123.129 235.005 C 124.671 234.475,125.386 233.845,125.784 232.662 C 126.085 231.772,126.760 230.391,127.285 229.593 C 127.810 228.795,128.240 227.282,128.240 226.230 C 128.240 224.752,128.426 224.390,129.062 224.633 C 129.638 224.854,130.144 224.319,130.756 222.843 C 131.235 221.684,132.448 219.730,133.450 218.500 C 134.452 217.270,135.435 215.612,135.635 214.817 C 135.835 214.021,136.192 213.370,136.428 213.370 C 136.664 213.370,137.673 212.099,138.670 210.545 C 139.667 208.991,141.166 206.972,142.001 206.058 C 142.836 205.143,143.520 204.178,143.520 203.914 C 143.520 203.649,144.134 202.702,144.884 201.810 C 145.634 200.919,146.254 199.901,146.261 199.549 C 146.267 199.197,147.250 198.064,148.443 197.031 C 149.637 195.999,150.614 194.832,150.614 194.439 C 150.614 194.046,150.843 193.724,151.123 193.724 C 151.403 193.724,151.788 193.233,151.978 192.633 C 152.169 192.033,152.580 191.542,152.893 191.542 C 153.622 191.542,156.044 189.258,156.077 188.540 C 156.090 188.240,156.947 187.381,157.981 186.630 C 159.015 185.880,159.868 185.014,159.876 184.705 C 159.894 184.026,161.875 182.265,162.621 182.265 C 162.915 182.265,163.463 181.774,163.837 181.173 C 164.212 180.573,164.951 180.082,165.479 180.082 C 166.007 180.082,166.439 179.714,166.439 179.263 C 166.439 178.813,166.790 178.445,167.219 178.445 C 167.648 178.445,168.330 178.138,168.734 177.763 C 170.247 176.360,172.968 174.625,173.653 174.625 C 177.816 174.625,178.381 168.793,174.352 167.419 L 171.623 166.489 174.352 166.741 C 175.853 166.880,180.027 167.099,183.629 167.229 M200.243 169.758 C 201.610 170.380,203.380 171.239,204.177 171.666 C 204.974 172.093,206.040 172.442,206.547 172.442 C 207.053 172.442,208.092 172.933,208.855 173.533 C 209.618 174.134,210.566 174.625,210.960 174.625 C 211.355 174.625,212.734 175.327,214.024 176.185 C 215.315 177.044,217.046 177.908,217.872 178.106 C 218.697 178.304,219.372 178.703,219.372 178.994 C 219.372 179.284,220.171 179.861,221.146 180.275 C 222.121 180.689,223.607 181.675,224.448 182.465 C 225.289 183.255,226.331 183.902,226.763 183.902 C 227.195 183.902,227.855 184.393,228.230 184.993 C 228.605 185.593,229.306 186.085,229.787 186.085 C 230.268 186.085,231.989 187.368,233.612 188.937 C 235.235 190.506,236.727 191.795,236.928 191.802 C 237.448 191.820,239.520 193.822,241.746 196.457 C 242.797 197.701,244.553 199.657,245.648 200.804 C 246.744 201.952,247.797 203.384,247.988 203.987 C 248.180 204.590,248.695 205.221,249.134 205.389 C 249.573 205.558,249.932 206.202,249.932 206.821 C 249.932 207.440,250.300 208.088,250.750 208.261 C 251.201 208.434,251.569 208.879,251.569 209.251 C 251.569 209.622,252.060 210.371,252.660 210.914 C 253.261 211.457,253.752 212.298,253.752 212.782 C 253.752 213.266,254.366 214.566,255.116 215.670 C 255.866 216.774,256.480 218.132,256.480 218.689 C 256.480 219.245,256.727 219.947,257.029 220.249 C 258.302 221.522,259.134 226.666,258.565 229.741 C 257.342 236.345,260.161 242.576,264.198 242.191 C 265.484 242.068,266.241 242.209,266.129 242.550 C 266.028 242.858,264.740 243.188,263.267 243.282 C 260.141 243.482,258.908 244.526,258.362 247.435 C 258.013 249.296,255.191 253.206,254.197 253.206 C 253.396 253.206,253.730 250.451,254.570 250.129 C 255.061 249.941,255.389 249.118,255.389 248.073 C 255.389 247.114,255.671 246.048,256.016 245.703 C 256.877 244.842,256.865 226.087,256.003 225.225 C 255.665 224.888,255.389 223.793,255.389 222.793 C 255.389 221.681,255.071 220.853,254.570 220.661 C 254.120 220.488,253.752 219.790,253.752 219.108 C 253.752 218.427,253.399 217.576,252.968 217.219 C 252.537 216.861,252.027 215.849,251.833 214.969 C 251.640 214.089,251.273 213.370,251.017 213.370 C 250.761 213.370,250.402 212.900,250.220 212.327 C 249.443 209.880,241.807 199.235,240.805 199.203 C 240.438 199.191,239.785 198.506,239.355 197.681 C 237.891 194.869,227.381 184.993,225.853 184.993 C 225.290 184.993,224.829 184.742,224.829 184.434 C 224.829 184.126,224.216 183.641,223.465 183.356 C 222.715 183.071,222.101 182.590,222.101 182.289 C 222.101 181.987,221.497 181.588,220.759 181.403 C 220.021 181.218,219.132 180.722,218.782 180.301 C 218.433 179.880,217.686 179.536,217.123 179.536 C 216.559 179.536,216.098 179.278,216.098 178.962 C 216.098 178.646,215.381 178.138,214.505 177.833 C 213.629 177.527,212.786 176.949,212.632 176.548 C 212.478 176.147,211.551 175.643,210.573 175.428 C 209.594 175.213,208.455 174.699,208.041 174.285 C 207.627 173.872,206.846 173.533,206.303 173.533 C 205.761 173.533,205.012 173.165,204.638 172.715 C 204.265 172.265,203.559 171.894,203.071 171.891 C 202.582 171.889,200.955 171.282,199.454 170.544 C 197.954 169.806,195.866 169.177,194.816 169.147 C 193.765 169.116,192.415 168.858,191.814 168.574 C 191.059 168.216,191.806 168.145,194.240 168.342 C 196.174 168.499,198.875 169.136,200.243 169.758 M280.558 173.642 C 280.314 174.302,279.806 174.944,279.430 175.070 C 278.991 175.216,279.081 174.786,279.681 173.870 C 280.823 172.127,281.150 172.042,280.558 173.642 M144.611 174.898 C 143.864 175.798,142.428 176.007,142.428 175.216 C 142.428 174.671,143.358 174.190,144.542 174.122 C 145.146 174.087,145.159 174.237,144.611 174.898 M154.871 174.488 C 153.582 177.134,153.097 177.899,152.709 177.899 C 151.967 177.899,152.181 176.836,153.206 175.427 C 154.076 174.230,155.345 173.515,154.871 174.488 M142.428 176.717 C 142.428 177.427,141.780 177.900,141.252 177.574 C 140.688 177.225,141.174 176.262,141.915 176.262 C 142.197 176.262,142.428 176.467,142.428 176.717 M138.490 181.703 C 137.858 182.762,136.950 184.120,136.474 184.720 C 135.048 186.515,134.338 188.024,133.954 190.072 C 133.754 191.139,133.246 192.144,132.825 192.305 C 132.350 192.487,132.060 193.404,132.060 194.723 C 132.060 196.036,131.582 197.552,130.808 198.696 C 130.119 199.713,128.970 201.774,128.253 203.274 C 127.537 204.775,126.785 206.126,126.581 206.276 C 126.378 206.426,125.900 207.531,125.519 208.731 C 125.138 209.932,124.490 211.566,124.078 212.363 C 123.666 213.159,123.327 214.878,123.325 216.182 C 123.323 217.630,122.899 219.191,122.237 220.191 C 121.641 221.091,121.118 222.442,121.075 223.192 C 121.010 224.328,120.960 224.368,120.774 223.431 C 120.652 222.812,121.053 221.134,121.667 219.703 C 122.281 218.271,122.799 216.199,122.818 215.098 C 122.860 212.691,124.005 207.055,124.565 206.494 C 124.786 206.274,124.966 205.651,124.966 205.110 C 124.966 204.149,126.761 200.514,127.746 199.482 C 128.018 199.196,128.247 197.846,128.255 196.480 C 128.268 194.458,128.572 193.702,129.892 192.406 C 130.784 191.530,131.514 190.504,131.514 190.125 C 131.514 189.747,131.900 189.051,132.372 188.579 C 132.844 188.108,133.028 187.718,132.781 187.713 C 132.535 187.709,132.609 187.525,132.947 187.304 C 133.284 187.084,134.029 186.044,134.601 184.993 C 135.174 183.943,136.371 182.070,137.262 180.833 C 139.195 178.146,140.192 178.852,138.490 181.703 M274.036 189.495 C 273.439 190.471,272.562 192.128,272.088 193.179 C 271.516 194.445,271.327 194.629,271.527 193.724 C 271.922 191.939,272.882 189.867,273.867 188.677 C 275.130 187.151,275.216 187.570,274.036 189.495 M266.446 200.900 C 267.442 201.528,266.458 202.940,265.245 202.623 C 263.935 202.280,263.880 201.943,264.801 199.921 C 265.389 198.630,265.509 198.571,265.683 199.486 C 265.793 200.069,266.136 200.705,266.446 200.900 M114.473 227.323 C 114.279 238.210,113.273 237.013,113.173 225.776 C 113.112 218.944,113.217 217.814,113.861 218.349 C 114.463 218.849,114.591 220.719,114.473 227.323 M166.680 227.848 C 167.337 228.345,168.978 228.649,171.003 228.649 C 173.103 228.649,174.581 228.934,175.149 229.449 C 175.722 229.967,177.895 230.379,181.332 230.621 C 184.721 230.859,186.851 231.259,187.243 231.731 C 187.601 232.162,188.936 232.469,190.453 232.469 C 192.592 232.469,193.102 232.662,193.337 233.561 C 193.562 234.420,194.081 234.652,195.783 234.652 C 197.117 234.652,198.474 235.070,199.330 235.744 C 200.093 236.344,201.185 236.835,201.755 236.835 C 202.326 236.835,203.269 237.195,203.852 237.636 C 204.435 238.077,205.303 238.445,205.782 238.455 C 206.260 238.464,207.097 238.963,207.640 239.563 C 208.183 240.164,209.034 240.655,209.530 240.655 C 210.026 240.655,210.909 241.015,211.492 241.456 C 212.074 241.897,212.981 242.265,213.506 242.275 C 214.031 242.284,214.461 242.668,214.461 243.128 C 214.461 243.587,214.891 244.101,215.416 244.270 C 215.941 244.439,217.044 244.828,217.866 245.136 L 219.362 245.694 216.944 247.540 C 215.615 248.555,214.321 249.386,214.069 249.386 C 213.818 249.386,213.192 249.877,212.678 250.477 C 212.164 251.078,211.373 251.569,210.919 251.569 C 210.466 251.569,210.095 251.822,210.095 252.132 C 210.095 252.441,209.666 252.857,209.141 253.055 C 208.615 253.253,207.053 254.289,205.669 255.357 C 201.733 258.395,199.688 259.696,196.862 260.960 C 196.037 261.329,195.362 261.945,195.362 262.330 C 195.362 262.714,194.783 263.029,194.077 263.029 C 192.710 263.029,190.353 264.892,189.758 266.442 C 189.544 267.001,189.065 267.247,188.566 267.056 C 187.581 266.678,187.309 267.322,186.982 270.805 L 186.739 273.397 189.346 273.397 C 190.998 273.397,192.203 273.097,192.633 272.578 C 193.007 272.128,193.735 271.760,194.252 271.760 C 194.769 271.760,195.637 271.269,196.180 270.668 C 196.723 270.068,197.727 269.577,198.411 269.577 C 199.151 269.577,199.786 269.159,199.981 268.545 C 200.162 267.977,200.731 267.359,201.246 267.172 C 203.117 266.491,205.373 264.885,207.254 262.892 C 207.750 262.367,208.807 261.937,209.604 261.937 C 210.401 261.937,211.359 261.569,211.733 261.119 C 212.106 260.668,212.966 260.300,213.643 260.300 C 214.319 260.300,215.194 259.914,215.586 259.442 C 216.472 258.374,220.522 256.221,221.348 256.379 C 221.925 256.489,224.829 253.147,224.829 252.374 C 224.829 252.176,225.299 251.417,225.872 250.688 L 226.915 249.363 227.950 250.678 C 228.519 251.402,229.462 252.092,230.045 252.212 C 230.661 252.338,231.071 252.836,231.023 253.401 C 230.971 254.018,231.214 254.268,231.690 254.085 C 232.102 253.927,232.789 254.296,233.216 254.906 C 233.643 255.516,234.401 256.074,234.901 256.148 C 235.401 256.221,236.716 257.258,237.823 258.453 C 238.931 259.647,240.995 261.447,242.411 262.452 C 245.125 264.379,245.503 265.683,242.965 264.359 C 240.005 262.815,239.563 263.419,239.563 269.009 C 239.563 271.640,239.326 272.915,238.745 273.397 C 238.295 273.771,237.926 274.619,237.926 275.281 C 237.926 275.944,237.313 277.694,236.564 279.171 C 235.815 280.647,235.201 282.722,235.200 283.780 C 235.199 284.839,234.859 286.190,234.446 286.782 C 234.032 287.374,233.367 289.627,232.968 291.789 C 232.308 295.363,232.116 295.735,230.860 295.882 C 229.987 295.984,229.401 296.445,229.270 297.133 C 229.157 297.732,228.602 298.808,228.038 299.526 C 227.474 300.243,227.012 301.287,227.012 301.847 C 227.012 302.407,226.794 302.865,226.527 302.865 C 226.260 302.865,226.054 303.172,226.067 303.547 C 226.145 305.638,225.882 306.200,224.961 305.908 C 224.029 305.612,221.555 310.521,221.555 312.666 C 221.555 313.081,221.229 313.808,220.830 314.282 C 219.883 315.408,218.281 320.581,218.281 322.515 C 218.281 323.359,217.918 324.170,217.462 324.345 C 216.841 324.583,216.640 325.616,216.626 328.632 C 216.608 332.593,215.586 335.061,213.964 335.061 C 213.637 335.061,213.370 335.400,213.370 335.814 C 213.370 337.174,208.574 340.623,206.605 340.679 C 205.326 340.715,204.812 340.979,204.853 341.579 C 204.887 342.067,204.390 342.502,203.683 342.602 C 203.008 342.699,202.456 343.120,202.456 343.539 C 202.456 343.957,201.965 344.563,201.364 344.884 C 200.764 345.205,200.273 345.774,200.273 346.147 C 200.273 346.520,199.741 347.187,199.091 347.629 C 198.442 348.070,197.495 348.825,196.988 349.307 C 195.593 350.632,193.358 351.049,192.977 350.056 C 192.803 349.604,192.041 348.997,191.283 348.709 C 190.525 348.421,189.905 347.950,189.905 347.663 C 189.905 347.375,189.413 346.985,188.813 346.794 C 188.213 346.603,187.722 346.124,187.722 345.729 C 187.722 344.958,186.083 344.358,183.945 344.346 C 183.218 344.342,182.173 343.931,181.622 343.432 C 180.279 342.217,168.160 342.196,167.271 343.407 C 166.964 343.825,165.795 344.339,164.674 344.549 C 163.552 344.759,162.693 345.206,162.764 345.543 C 163.367 348.417,157.301 346.262,156.349 343.265 C 156.156 342.655,155.768 342.156,155.488 342.156 C 155.209 342.156,154.972 341.726,154.962 341.201 C 154.942 340.079,152.885 337.604,151.547 337.091 C 151.028 336.892,150.614 336.156,150.614 335.433 C 150.614 333.599,149.525 330.538,148.611 329.800 C 147.958 329.274,148.054 328.859,149.226 327.132 C 149.989 326.007,150.614 324.858,150.614 324.578 C 150.614 324.298,150.982 323.701,151.432 323.251 C 151.891 322.792,152.251 321.459,152.251 320.217 L 152.251 318.002 154.297 318.337 C 157.692 318.894,168.718 318.090,168.418 317.308 C 168.248 316.866,168.966 316.549,170.543 316.371 C 171.853 316.224,173.325 315.703,173.814 315.214 C 174.303 314.725,175.545 314.325,176.574 314.325 C 177.603 314.325,178.629 314.315,178.854 314.303 C 179.079 314.291,179.386 315.089,179.536 316.077 L 179.809 317.872 186.085 318.282 C 193.684 318.780,198.973 318.384,199.394 317.287 C 199.558 316.858,200.253 316.506,200.938 316.504 C 201.623 316.502,202.920 316.012,203.820 315.416 C 204.720 314.820,205.887 314.330,206.412 314.328 C 207.002 314.326,207.367 313.908,207.367 313.233 C 207.367 312.564,207.737 312.135,208.322 312.125 C 211.573 312.066,218.343 301.563,216.761 299.030 C 216.397 298.446,216.098 297.357,216.098 296.609 C 216.098 292.747,211.172 292.661,210.358 296.509 C 209.938 298.495,209.442 299.344,208.374 299.903 C 207.591 300.313,206.807 301.025,206.630 301.484 C 206.003 303.120,194.816 302.564,194.816 300.897 C 194.816 300.479,194.497 300.136,194.108 300.136 C 193.383 300.136,191.952 299.163,189.500 296.999 C 187.539 295.269,180.668 295.188,179.095 296.876 C 177.636 298.442,174.380 298.482,172.953 296.951 C 171.475 295.365,164.356 295.204,162.837 296.722 C 161.732 297.827,160.215 298.765,158.161 299.612 C 157.360 299.942,156.572 300.556,156.411 300.976 C 155.942 302.200,152.329 303.491,151.146 302.858 C 150.593 302.562,149.241 302.319,148.143 302.319 C 146.637 302.319,146.079 302.063,145.874 301.278 C 145.724 300.706,145.133 300.115,144.561 299.965 C 143.780 299.761,143.520 299.202,143.520 297.732 C 143.520 294.780,140.800 292.595,138.881 294.006 C 136.623 295.667,135.564 303.044,137.262 305.288 C 137.702 305.871,138.063 306.870,138.063 307.507 C 138.063 308.720,141.174 311.843,142.941 312.404 C 143.504 312.583,144.102 313.088,144.271 313.527 C 144.439 313.966,144.922 314.325,145.343 314.325 C 146.386 314.325,151.037 316.413,151.437 317.061 C 151.630 317.373,151.117 317.454,150.162 317.263 C 148.371 316.905,146.248 317.801,146.248 318.916 C 146.248 319.318,145.906 319.932,145.487 320.280 C 145.068 320.628,144.566 321.760,144.372 322.796 C 143.845 325.603,141.883 326.484,141.883 323.913 C 141.883 321.654,140.426 320.591,137.996 321.077 C 136.929 321.291,136.426 321.171,136.426 320.702 C 136.426 320.323,135.928 319.040,135.319 317.851 C 134.710 316.662,133.875 314.584,133.463 313.233 C 133.052 311.883,132.399 310.041,132.012 309.141 C 131.626 308.240,131.267 306.655,131.215 305.619 C 131.164 304.582,130.841 303.641,130.499 303.527 C 130.157 303.413,129.877 302.658,129.877 301.849 C 129.877 301.041,129.533 299.888,129.113 299.289 C 128.693 298.689,128.223 296.731,128.069 294.938 C 127.480 288.089,126.570 284.869,125.122 284.506 C 123.591 284.122,122.783 282.383,122.783 279.473 C 122.783 278.352,122.506 277.158,122.168 276.820 C 121.811 276.463,121.573 274.480,121.601 272.092 C 121.627 269.829,121.413 267.832,121.125 267.654 C 120.458 267.242,120.451 264.959,121.111 262.795 C 121.391 261.873,122.051 259.154,122.577 256.753 C 123.102 254.352,123.870 252.104,124.283 251.757 C 124.696 251.410,125.154 249.691,125.300 247.937 C 125.536 245.117,129.152 236.253,130.498 235.198 C 130.689 235.048,131.229 234.004,131.698 232.879 C 132.588 230.741,133.511 230.258,134.045 231.651 C 134.446 232.694,137.177 232.718,138.034 231.686 C 138.391 231.255,139.465 230.732,140.420 230.525 C 141.374 230.317,142.640 229.810,143.232 229.398 C 143.824 228.986,145.008 228.649,145.863 228.649 C 146.718 228.649,147.786 228.281,148.236 227.831 C 149.414 226.653,165.119 226.668,166.680 227.848 M317.462 238.863 C 316.637 238.988,315.286 238.988,314.461 238.863 C 313.636 238.738,314.311 238.636,315.962 238.636 C 317.613 238.636,318.288 238.738,317.462 238.863 M135.058 244.478 C 134.513 245.081,133.800 245.543,133.473 245.505 C 131.641 245.294,129.877 245.652,129.877 246.235 C 129.877 246.603,128.834 247.830,127.558 248.961 L 125.239 251.019 125.043 255.744 C 124.816 261.207,125.531 263.957,127.722 266.056 C 130.168 268.400,131.510 267.561,131.532 263.674 C 131.560 259.005,132.674 257.925,137.170 258.211 C 139.483 258.359,140.950 258.743,141.572 259.366 C 142.086 259.880,142.802 260.300,143.164 260.300 C 143.526 260.300,144.629 261.037,145.615 261.937 C 146.600 262.838,147.746 263.574,148.161 263.574 C 148.576 263.574,149.236 264.030,149.628 264.587 C 150.020 265.145,150.955 265.778,151.705 265.995 C 154.289 266.742,156.499 267.937,156.813 268.756 C 157.050 269.375,158.040 269.578,160.829 269.580 C 163.140 269.583,165.144 269.907,166.166 270.446 C 168.471 271.659,173.286 272.099,174.374 271.196 C 176.632 269.322,174.207 264.666,170.973 264.666 C 169.980 264.666,169.168 264.425,169.168 264.130 C 169.168 263.836,168.554 263.441,167.804 263.253 C 167.053 263.064,166.439 262.562,166.439 262.137 C 166.439 261.712,165.718 261.220,164.837 261.044 C 163.956 260.868,163.104 260.383,162.944 259.966 C 162.784 259.550,162.267 259.209,161.795 259.209 C 160.896 259.209,160.439 258.890,157.481 256.207 C 156.489 255.307,154.006 253.097,151.964 251.296 C 149.922 249.495,147.688 247.491,147.001 246.843 C 146.313 246.194,144.986 245.496,144.053 245.290 C 143.119 245.085,141.696 244.574,140.891 244.154 C 138.774 243.049,136.223 243.191,135.058 244.478 M279.127 245.020 C 278.941 245.321,278.421 245.566,277.971 245.566 C 277.521 245.566,277.304 245.321,277.490 245.020 C 277.675 244.720,278.195 244.475,278.646 244.475 C 279.096 244.475,279.312 244.720,279.127 245.020 M312.960 244.976 C 314.384 245.263,311.880 245.408,305.758 245.393 C 300.596 245.381,296.498 245.169,296.650 244.923 C 297.003 244.352,310.067 244.395,312.960 244.976 M291.678 246.145 C 290.177 246.379,288.274 246.742,287.449 246.951 C 286.523 247.185,285.948 247.111,285.948 246.757 C 285.948 246.082,287.895 245.732,291.678 245.725 L 294.407 245.720 291.678 246.145 M323.602 246.611 C 324.952 246.879,327.653 247.404,329.604 247.777 C 331.555 248.150,333.643 248.775,334.243 249.166 C 334.843 249.557,336.439 250.048,337.790 250.258 C 339.141 250.467,340.730 250.971,341.322 251.377 C 341.914 251.783,342.984 252.115,343.700 252.115 C 344.662 252.115,344.915 252.339,344.670 252.978 C 344.487 253.453,344.338 254.066,344.338 254.342 C 344.338 255.167,342.843 254.908,342.504 254.025 C 342.331 253.574,341.560 253.206,340.791 253.206 C 340.022 253.206,339.257 252.853,339.091 252.421 C 338.926 251.989,338.033 251.469,337.108 251.266 C 336.182 251.063,334.668 250.435,333.743 249.870 C 332.817 249.306,331.154 248.844,330.046 248.842 C 328.938 248.841,327.880 248.595,327.694 248.295 C 327.509 247.995,326.528 247.749,325.515 247.749 C 324.502 247.749,322.981 247.477,322.136 247.145 C 321.292 246.813,319.372 246.332,317.872 246.077 L 315.143 245.612 318.145 245.868 C 319.795 246.008,322.251 246.343,323.602 246.611 M270.221 250.608 C 270.321 251.308,270.856 251.919,271.473 252.036 C 272.066 252.149,272.839 252.636,273.192 253.118 C 273.570 253.635,274.694 254.019,275.934 254.056 C 277.090 254.090,281.105 254.342,284.857 254.617 L 291.678 255.116 286.767 255.389 L 281.855 255.662 281.689 257.372 C 281.561 258.693,281.857 259.345,282.990 260.236 L 284.456 261.390 280.973 261.043 C 279.057 260.852,277.023 260.455,276.453 260.162 C 275.882 259.868,273.848 259.434,271.931 259.196 C 268.148 258.727,266.849 258.012,266.849 256.400 C 266.849 255.683,266.342 255.260,265.211 255.034 C 263.481 254.688,262.945 253.752,264.477 253.752 C 264.973 253.752,266.220 252.769,267.248 251.569 C 269.384 249.074,269.975 248.883,270.221 250.608 M303.691 257.060 C 303.995 257.297,305.468 257.790,306.965 258.156 C 308.462 258.521,309.941 259.018,310.253 259.259 C 310.565 259.500,311.793 259.934,312.982 260.223 C 314.171 260.513,316.003 261.054,317.053 261.426 C 318.104 261.798,319.209 262.187,319.509 262.289 C 319.809 262.392,320.423 262.697,320.873 262.967 C 321.323 263.237,322.306 263.728,323.056 264.058 C 323.806 264.388,324.789 264.864,325.239 265.116 C 327.659 266.469,329.781 267.394,330.463 267.394 C 330.886 267.394,331.539 267.885,331.914 268.486 C 332.289 269.086,332.989 269.577,333.471 269.577 C 333.953 269.577,334.791 270.068,335.334 270.668 C 335.877 271.269,336.670 271.760,337.095 271.760 C 337.855 271.760,339.427 273.021,339.427 273.631 C 339.427 274.170,337.325 273.969,336.971 273.397 C 336.786 273.097,336.145 272.851,335.548 272.851 C 334.950 272.851,333.577 271.992,332.495 270.941 C 331.413 269.891,330.215 269.031,329.832 269.031 C 329.450 269.031,328.812 268.722,328.416 268.343 C 328.019 267.964,327.080 267.340,326.330 266.957 C 325.580 266.573,323.738 265.546,322.237 264.675 C 320.737 263.804,318.986 263.077,318.348 263.060 C 317.709 263.043,316.881 262.660,316.508 262.210 C 316.134 261.760,315.210 261.392,314.454 261.392 C 313.698 261.392,312.071 260.915,310.837 260.333 C 309.604 259.750,307.434 259.122,306.015 258.937 C 304.597 258.752,303.293 258.369,303.118 258.086 C 302.944 257.803,301.514 257.572,299.941 257.572 C 298.367 257.572,296.847 257.347,296.562 257.072 C 296.277 256.797,295.430 256.460,294.679 256.321 C 293.929 256.183,295.525 256.196,298.226 256.349 C 300.928 256.503,303.387 256.823,303.691 257.060 M292.769 262.780 C 293.370 263.150,294.818 263.620,295.987 263.826 C 297.156 264.031,298.630 264.532,299.261 264.938 C 299.893 265.344,301.333 265.845,302.462 266.052 C 303.591 266.258,304.649 266.644,304.813 266.910 C 304.978 267.177,305.820 267.394,306.686 267.394 C 307.592 267.394,308.563 267.820,308.973 268.397 C 309.365 268.949,310.391 269.575,311.253 269.789 C 312.114 270.002,313.176 270.533,313.611 270.968 C 314.046 271.404,314.846 271.760,315.388 271.760 C 315.930 271.760,316.680 272.128,317.053 272.578 C 317.427 273.029,318.217 273.397,318.808 273.397 C 319.425 273.397,320.006 273.863,320.169 274.488 C 320.372 275.265,320.914 275.580,322.045 275.580 C 322.956 275.580,323.770 275.930,323.950 276.398 C 324.123 276.849,324.729 277.217,325.297 277.217 C 325.966 277.217,326.330 277.601,326.330 278.308 C 326.330 279.078,326.694 279.400,327.563 279.400 C 328.241 279.400,329.103 279.891,329.478 280.491 C 329.853 281.091,330.420 281.583,330.739 281.583 C 331.335 281.583,332.879 282.915,332.879 283.429 C 332.879 283.587,332.312 284.283,331.619 284.975 L 330.359 286.235 328.538 284.454 C 327.537 283.475,326.446 282.672,326.114 282.669 C 325.783 282.666,324.652 281.686,323.602 280.491 C 322.551 279.296,321.385 278.317,321.010 278.314 C 320.634 278.311,320.327 278.079,320.327 277.799 C 320.327 277.519,319.849 277.139,319.264 276.953 C 318.679 276.767,318.060 276.172,317.887 275.629 C 317.715 275.087,316.605 274.206,315.420 273.672 C 314.235 273.137,312.852 272.243,312.346 271.684 C 311.841 271.126,310.991 270.668,310.459 270.668 C 309.927 270.668,309.154 270.332,308.743 269.920 C 308.331 269.508,306.287 268.634,304.202 267.977 C 302.116 267.320,299.501 266.306,298.391 265.724 C 297.281 265.142,295.685 264.658,294.844 264.648 C 294.003 264.639,292.838 264.271,292.256 263.830 C 291.673 263.389,290.538 263.029,289.732 263.029 C 287.504 263.029,284.857 262.404,284.857 261.877 C 284.857 261.216,291.450 261.968,292.769 262.780 M277.373 268.699 C 278.037 269.117,279.714 269.618,281.100 269.813 C 282.485 270.008,284.081 270.518,284.647 270.946 C 285.212 271.375,286.302 271.733,287.067 271.743 C 287.832 271.752,288.741 272.042,289.085 272.387 C 289.430 272.732,290.626 273.163,291.742 273.344 C 292.858 273.525,293.868 273.964,293.986 274.319 C 294.231 275.053,290.446 274.228,289.523 273.346 C 289.237 273.074,288.274 272.851,287.383 272.851 C 286.491 272.851,285.337 272.467,284.818 271.998 C 284.299 271.528,281.928 270.832,279.549 270.451 C 277.170 270.070,274.936 269.581,274.585 269.364 C 274.234 269.147,273.422 268.868,272.780 268.745 C 270.618 268.328,271.013 267.940,273.598 267.940 C 275.009 267.940,276.708 268.282,277.373 268.699 M298.499 276.398 C 298.873 276.849,299.517 277.217,299.930 277.217 C 300.344 277.217,300.682 277.708,300.682 278.308 C 300.682 278.909,300.701 279.578,300.723 279.795 C 300.746 280.013,300.500 280.279,300.177 280.387 C 299.855 280.494,299.591 280.193,299.591 279.718 C 299.591 279.243,299.378 278.854,299.119 278.854 C 298.247 278.854,295.757 276.589,296.071 276.082 C 296.540 275.323,297.737 275.479,298.499 276.398 M313.779 289.338 C 313.779 289.702,314.454 290.553,315.280 291.229 C 316.779 292.456,316.779 292.457,315.501 292.477 C 314.671 292.490,314.122 292.114,313.937 291.405 C 313.780 290.805,313.320 290.314,312.914 290.314 C 312.482 290.314,312.306 289.974,312.490 289.495 C 312.866 288.515,313.779 288.404,313.779 289.338 M170.258 327.831 C 170.259 329.795,170.496 331.241,170.818 331.241 C 171.126 331.241,171.599 331.824,171.870 332.537 C 172.828 335.056,176.855 334.819,177.654 332.197 C 177.860 331.521,178.384 330.563,178.818 330.067 C 179.299 329.519,179.541 328.342,179.436 327.066 L 179.263 324.966 174.760 324.693 L 170.257 324.420 170.258 327.831 " stroke="none" fill="#d82679" fill-rule="evenodd"></path></g></svg>